<svg aria-hidden="true" style="position: absolute; width: 0; height: 0; overflow: hidden;" version="1.1" xmlns="http://www.w3.org/2000/svg" xmlns:xlink="http://www.w3.org/1999/xlink">
<defs>
<symbol id="full-box" viewBox="0 0 13 32">
<path fill="#6ceec7" style="fill: var(--color1, #6ceec7)" d="M2 0h9.333c1.105 0 2 0.895 2 2v9.333c0 1.105-0.895 2-2 2h-9.333c-1.105 0-2-0.895-2-2v-9.333c0-1.105 0.895-2 2-2z"></path>
<path fill="none" stroke="#67d9b7" style="stroke: var(--color2, #67d9b7)" stroke-linejoin="miter" stroke-linecap="butt" stroke-miterlimit="4" stroke-width="0.6667" d="M2 0.333h9.333c0.92 0 1.667 0.746 1.667 1.667v9.333c0 0.92-0.746 1.667-1.667 1.667h-9.333c-0.92 0-1.667-0.746-1.667-1.667v-9.333c0-0.92 0.746-1.667 1.667-1.667z"></path>
</symbol>
<symbol id="logo" viewBox="0 0 127 32">
<path fill="#fff" style="fill: var(--color3, #fff)" d="M39.166 21.585c-0.121 0.328-0.241 0.655-0.264 0.99-0.042 0.65 0.051 1.318 0.17 1.968 0.050 0.325 0.114 0.648 0.178 0.972 0.162 0.825 0.325 1.649 0.264 2.496-0.076 0.98-0.382 1.882-1.299 2.324-0.501 0.243-1.137 0.381-1.672 0.303-0.976-0.13-1.944-0.399-2.869-0.728-0.908-0.329-1.732-0.217-2.623 0.087-4.635 1.587-9.379 2.367-14.277 1.838-2.351-0.251-4.669-0.728-6.926-1.448-0.229-0.073-0.459-0.154-0.689-0.236-0.451-0.16-0.905-0.32-1.366-0.423-0.39-0.087-0.84-0.043-1.239 0.052-0.433 0.104-0.86 0.231-1.286 0.357-0.645 0.192-1.289 0.383-1.948 0.492-1.766 0.295-2.937-0.694-3.098-2.506-0.093-1.101 0.085-2.168 0.399-3.208 0.221-0.72 0.849-1.101 1.418-0.928 0.611 0.191 0.993 0.902 0.874 1.595-0.028 0.16-0.056 0.321-0.085 0.481-0.086 0.481-0.172 0.962-0.229 1.444-0.076 0.642 0.11 0.806 0.721 0.642 0.789-0.217 1.579-0.434 2.36-0.694 1.188-0.39 2.317-0.269 3.514 0.104 1.969 0.616 3.973 1.145 5.993 1.552 2.47 0.486 4.983 0.538 7.478 0.269 2.037-0.217 4.049-0.624 6.018-1.223 0.388-0.12 0.775-0.251 1.162-0.382 0.51-0.173 1.021-0.346 1.537-0.494 0.849-0.243 1.706-0.104 2.546 0.139 0.275 0.082 0.549 0.165 0.823 0.249 0.512 0.156 1.023 0.312 1.537 0.454 0.73 0.208 0.9 0.087 0.832-0.668-0.038-0.413-0.115-0.823-0.192-1.233-0.043-0.227-0.085-0.455-0.122-0.683-0.119-0.728-0.238-1.457-0.331-2.185-0.108-0.841 0.138-1.617 0.385-2.392 0.063-0.199 0.127-0.399 0.184-0.599 0.603-2.116 0.883-4.275 0.484-6.46-0.212-1.153-0.526-2.298-0.866-3.425-0.34-1.145-0.17-2.263 0.009-3.39 0.053-0.328 0.111-0.655 0.169-0.98 0.101-0.568 0.202-1.135 0.273-1.708 0.068-0.546-0.102-0.694-0.645-0.564-0.374 0.087-0.743 0.199-1.113 0.31-0.293 0.088-0.585 0.177-0.882 0.253-0.119 0.033-0.238 0.067-0.358 0.101-0.484 0.139-0.969 0.279-1.459 0.306-0.56 0.026-1.146-0.104-1.698-0.251-0.697-0.183-1.39-0.386-2.084-0.589-1.181-0.346-2.363-0.692-3.561-0.937-2.827-0.581-5.679-0.737-8.565-0.373-2.911 0.364-5.713 1.119-8.471 2.046-0.416 0.139-0.908 0.182-1.333 0.095-1.078-0.225-2.139-0.52-3.192-0.841-1.103-0.338-1.299-0.191-1.103 0.988 0.072 0.441 0.148 0.88 0.223 1.319 0.11 0.641 0.22 1.281 0.32 1.924 0.144 0.919 0 1.786-0.314 2.671-0.654 1.838-0.679 3.694 0.009 5.549 0.441 1.188 1.087 2.263 1.91 3.191 1.248 1.413 2.776 2.445 4.575 2.974 0.594 0.173 1.203 0.293 1.813 0.412 0.305 0.060 0.609 0.119 0.912 0.186-0.015 0.005-0.030 0.011-0.046 0.016-0.069 0.025-0.151 0.055-0.234 0.062-2.232 0.26-4.414 0.104-6.46-0.936-2.063-1.049-3.523-2.671-4.499-4.795-1.095-2.384-1.087-4.83-0.289-7.257 0.359-1.078 0.174-2.076-0.013-3.083-0.043-0.232-0.086-0.464-0.123-0.698-0.017-0.11-0.035-0.22-0.052-0.33-0.158-0.983-0.317-1.968-0.049-2.973 0.297-1.092 1.12-1.847 2.258-1.829 0.698 0.016 1.396 0.173 2.081 0.326 0.056 0.013 0.112 0.025 0.168 0.038 0.662 0.147 1.307 0.347 1.944 0.59 0.425 0.165 0.796 0.046 1.174-0.075 0.098-0.031 0.196-0.063 0.295-0.090 0.605-0.165 1.208-0.34 1.81-0.515 1.299-0.378 2.597-0.755 3.919-1.028 3.098-0.633 6.239-0.772 9.405-0.364 2.75 0.355 5.424 0.962 8.030 1.908 0.772 0.286 1.468 0.199 2.207-0.026 0.176-0.055 0.353-0.112 0.53-0.168 0.548-0.176 1.102-0.353 1.66-0.491 0.764-0.191 1.545-0.234 2.283 0.13 0.942 0.468 1.333 1.318 1.392 2.306 0.034 0.685-0.059 1.379-0.153 2.064-0.051 0.377-0.123 0.754-0.195 1.132-0.095 0.5-0.19 1-0.238 1.504-0.047 0.452 0.060 0.919 0.164 1.373 0.008 0.034 0.016 0.068 0.023 0.101 0.104 0.45 0.22 0.898 0.336 1.347 0.121 0.468 0.243 0.937 0.351 1.41 0.042 0.173-0.034 0.408-0.136 0.555-0.314 0.486-0.314 0.815 0.136 1.162 0.246 0.191 0.306 0.416 0.323 0.702 0.093 1.994-0.212 3.945-0.764 5.853-0.048 0.165-0.108 0.329-0.169 0.492z"></path>
<path fill="#fff" style="fill: var(--color3, #fff)" d="M24.302 13.176l0.204 1.457c0.068 0.468 0.348 0.711 0.789 0.772l0.034 0.005c0.609 0.094 1.225 0.189 1.834 0.35-0.195 0.032-0.39 0.066-0.586 0.101-0.39 0.069-0.781 0.139-1.171 0.185-0.594 0.078-0.823 0.269-0.917 0.876-0.052 0.343-0.096 0.683-0.141 1.024-0.021 0.158-0.041 0.317-0.063 0.476-0.009 0.095-0.051 0.182-0.17 0.269-0.025-0.121-0.042-0.234-0.059-0.347-0.027-0.181-0.051-0.363-0.076-0.546-0.046-0.342-0.093-0.687-0.153-1.032-0.076-0.442-0.348-0.65-0.781-0.711-0.413-0.052-0.826-0.119-1.239-0.187-0.207-0.034-0.413-0.067-0.62-0.099v-0.078c0.306-0.048 0.609-0.093 0.912-0.139s0.607-0.091 0.912-0.139c0.56-0.087 0.755-0.277 0.849-0.85 0.052-0.343 0.096-0.683 0.141-1.024 0.021-0.158 0.041-0.317 0.063-0.476 0.017-0.087 0.042-0.173 0.17-0.269 0.004 0.019 0.007 0.037 0.011 0.056 0.022 0.11 0.042 0.215 0.057 0.326z"></path>
<path fill="#fff" style="fill: var(--color3, #fff)" d="M28.557 12.318c-0.026-0.197-0.053-0.393-0.087-0.59-0.042-0.251-0.195-0.364-0.45-0.399-0.227-0.028-0.45-0.064-0.674-0.1-0.12-0.019-0.241-0.038-0.362-0.057v-0.043l1.019-0.156c0.314-0.043 0.424-0.147 0.475-0.468 0.021-0.139 0.038-0.277 0.055-0.416s0.034-0.277 0.055-0.416c0.009-0.043 0.025-0.095 0.093-0.147 0.017 0.069 0.034 0.139 0.042 0.208 0.034 0.277 0.068 0.546 0.11 0.815 0.042 0.26 0.195 0.399 0.441 0.434 0.348 0.052 0.696 0.104 1.044 0.199-0.102 0.016-0.204 0.034-0.306 0.051-0.221 0.038-0.444 0.075-0.67 0.105-0.331 0.043-0.458 0.147-0.509 0.486-0.034 0.277-0.068 0.555-0.11 0.832-0.008 0.052-0.025 0.095-0.093 0.147-0.015-0.054-0.024-0.115-0.031-0.17-0.001-0.007-0.002-0.014-0.003-0.020-0.014-0.098-0.027-0.196-0.041-0.295z"></path>
<path fill="#fff" style="fill: var(--color3, #fff)" d="M84.789 21.015c0.475 0.248 1.060 0.372 1.755 0.372h1.408c0.116 0 0.215-0.041 0.295-0.124s0.122-0.183 0.122-0.301v-1.097c0-0.118-0.041-0.218-0.122-0.301s-0.179-0.124-0.295-0.124h-1.199c-0.417 0-0.713-0.136-0.887-0.407-0.162-0.271-0.243-0.649-0.243-1.133v-3.841h2.173c0.115 0 0.214-0.041 0.295-0.124s0.121-0.189 0.121-0.319v-1.009c0-0.118-0.041-0.218-0.121-0.301s-0.18-0.124-0.295-0.124h-2.173v-2.938c0-0.118-0.041-0.218-0.121-0.301s-0.18-0.124-0.296-0.124h-1.408c-0.127 0-0.231 0.041-0.313 0.124-0.069 0.083-0.105 0.183-0.105 0.301v2.938h-1.373c-0.116 0-0.215 0.041-0.296 0.124s-0.121 0.183-0.121 0.301v1.009c0 0.13 0.041 0.236 0.121 0.319s0.18 0.124 0.296 0.124h1.373v4.018c0 0.732 0.116 1.345 0.348 1.841 0.232 0.484 0.585 0.85 1.061 1.097z"></path>
<path fill="#fff" style="fill: var(--color3, #fff)" d="M51.622 21.263c0.081 0.083 0.18 0.124 0.296 0.124h5.18c0.904 0 1.663-0.153 2.277-0.46 0.614-0.319 1.078-0.755 1.391-1.31s0.469-1.186 0.469-1.894c0-0.684-0.174-1.274-0.521-1.77s-0.748-0.85-1.199-1.062c0.22-0.118 0.44-0.283 0.661-0.496 0.232-0.212 0.423-0.484 0.574-0.814 0.162-0.342 0.243-0.737 0.243-1.186 0-0.673-0.145-1.263-0.435-1.77-0.278-0.507-0.713-0.903-1.304-1.186-0.591-0.295-1.356-0.442-2.295-0.442h-5.041c-0.116 0-0.214 0.041-0.296 0.124s-0.122 0.189-0.122 0.319v11.522c0 0.118 0.041 0.218 0.122 0.301zM56.82 19.511h-2.903v-3.593h2.903c0.614 0 1.084 0.171 1.408 0.513 0.336 0.342 0.504 0.773 0.504 1.292 0 0.496-0.162 0.92-0.487 1.274-0.324 0.342-0.8 0.513-1.425 0.513zM56.646 14.077h-2.729v-3.221h2.729c0.614 0 1.072 0.142 1.373 0.425 0.313 0.283 0.469 0.673 0.469 1.168 0 0.484-0.156 0.879-0.469 1.186-0.301 0.295-0.759 0.442-1.373 0.442z"></path>
<path fill="#fff" style="fill: var(--color3, #fff)" d="M64.043 20.431c0.753 0.755 1.773 1.133 3.059 1.133 0.649 0 1.223-0.083 1.721-0.248 0.51-0.177 0.933-0.395 1.269-0.655s0.591-0.525 0.765-0.796c0.185-0.271 0.283-0.501 0.295-0.69 0.011-0.106-0.023-0.195-0.105-0.265-0.069-0.071-0.162-0.106-0.278-0.106h-1.495c-0.127 0-0.226 0.018-0.296 0.053-0.057 0.024-0.139 0.106-0.243 0.248-0.057 0.083-0.156 0.189-0.295 0.319s-0.319 0.248-0.539 0.354c-0.22 0.094-0.493 0.142-0.817 0.142-0.394 0-0.736-0.106-1.025-0.319-0.278-0.212-0.493-0.49-0.643-0.832-0.139-0.354-0.214-0.737-0.226-1.15v-0.142h5.771c0.127 0 0.232-0.041 0.313-0.124s0.122-0.183 0.122-0.301v-0.372c0-0.92-0.162-1.729-0.487-2.425-0.325-0.708-0.805-1.257-1.443-1.646-0.637-0.401-1.426-0.602-2.365-0.602-0.846 0-1.582 0.177-2.207 0.531-0.626 0.342-1.118 0.838-1.478 1.487-0.348 0.637-0.545 1.404-0.591 2.301-0.012 0.106-0.017 0.254-0.017 0.442 0 0.177 0.006 0.325 0.017 0.443 0.058 1.392 0.464 2.466 1.217 3.221zM69.033 15.989h-3.842v-0.053c0-0.46 0.070-0.861 0.209-1.204 0.151-0.354 0.371-0.625 0.661-0.814 0.29-0.201 0.637-0.301 1.043-0.301s0.753 0.1 1.043 0.301c0.289 0.189 0.51 0.46 0.661 0.814 0.151 0.342 0.226 0.743 0.226 1.204v0.053z"></path>
<path fill="#fff" style="fill: var(--color3, #fff)" d="M76.666 21.564c-0.695 0-1.292-0.083-1.79-0.248-0.487-0.165-0.887-0.372-1.199-0.619s-0.545-0.496-0.695-0.743-0.232-0.454-0.243-0.619c-0.012-0.13 0.023-0.23 0.104-0.301 0.093-0.083 0.191-0.124 0.295-0.124h1.373c0.047 0 0.087 0.006 0.122 0.018s0.081 0.047 0.139 0.106c0.151 0.13 0.307 0.265 0.469 0.407 0.174 0.142 0.377 0.265 0.609 0.372 0.232 0.094 0.521 0.142 0.869 0.142 0.452 0 0.829-0.088 1.13-0.265 0.313-0.189 0.469-0.454 0.469-0.796 0-0.248-0.070-0.448-0.209-0.602-0.128-0.153-0.371-0.289-0.73-0.407-0.359-0.13-0.869-0.265-1.53-0.407-0.649-0.153-1.188-0.348-1.617-0.584s-0.747-0.531-0.956-0.885c-0.209-0.354-0.313-0.767-0.313-1.239 0-0.46 0.133-0.897 0.399-1.31 0.278-0.425 0.684-0.773 1.217-1.044 0.545-0.271 1.217-0.407 2.017-0.407 0.626 0 1.171 0.083 1.634 0.248 0.464 0.153 0.846 0.348 1.147 0.584 0.313 0.236 0.551 0.478 0.713 0.726 0.163 0.236 0.249 0.442 0.261 0.619 0.012 0.13-0.023 0.236-0.104 0.319-0.081 0.071-0.174 0.106-0.278 0.106h-1.287c-0.058 0-0.11-0.012-0.157-0.035s-0.093-0.053-0.139-0.089c-0.127-0.118-0.267-0.242-0.417-0.372-0.151-0.142-0.336-0.26-0.556-0.354-0.209-0.094-0.487-0.142-0.835-0.142-0.44 0-0.777 0.1-1.008 0.301-0.232 0.189-0.348 0.431-0.348 0.726 0 0.201 0.052 0.378 0.157 0.531 0.116 0.142 0.342 0.277 0.678 0.407s0.846 0.265 1.529 0.407c0.777 0.142 1.391 0.354 1.843 0.637 0.464 0.271 0.788 0.59 0.974 0.956 0.197 0.354 0.295 0.749 0.295 1.186 0 0.531-0.157 1.009-0.469 1.434-0.301 0.425-0.753 0.761-1.356 1.009-0.591 0.236-1.327 0.354-2.208 0.354z"></path>
<path fill="#fff" style="fill: var(--color3, #fff)" d="M90.538 21.387c-0.116 0-0.215-0.041-0.295-0.124s-0.122-0.183-0.122-0.301v-11.522c0-0.13 0.041-0.236 0.122-0.319s0.179-0.124 0.295-0.124h4.502c1.403 0 2.509 0.33 3.32 0.991s1.217 1.622 1.217 2.885c0 0.873-0.215 1.599-0.643 2.177-0.417 0.578-0.979 0.997-1.686 1.257l2.538 4.513c0.035 0.071 0.052 0.136 0.052 0.195 0 0.106-0.041 0.195-0.122 0.265-0.069 0.071-0.151 0.106-0.243 0.106h-1.582c-0.197 0-0.347-0.053-0.451-0.159s-0.186-0.212-0.244-0.319l-2.242-4.195h-2.417v4.248c0 0.118-0.040 0.218-0.121 0.301-0.069 0.083-0.168 0.124-0.295 0.124h-1.582zM92.537 14.714h2.451c0.707 0 1.234-0.159 1.582-0.478 0.347-0.33 0.521-0.791 0.521-1.381s-0.174-1.050-0.521-1.381c-0.336-0.342-0.863-0.513-1.582-0.513h-2.451v3.752z"></path>
<path fill="#fff" style="fill: var(--color3, #fff)" d="M102.341 20.431c0.753 0.755 1.773 1.133 3.060 1.133 0.649 0 1.223-0.083 1.721-0.248 0.51-0.177 0.933-0.395 1.269-0.655s0.591-0.525 0.765-0.796c0.185-0.271 0.284-0.501 0.295-0.69 0.011-0.106-0.023-0.195-0.104-0.265-0.070-0.071-0.163-0.106-0.279-0.106h-1.495c-0.127 0-0.226 0.018-0.295 0.053-0.058 0.024-0.139 0.106-0.243 0.248-0.058 0.083-0.157 0.189-0.296 0.319s-0.319 0.248-0.539 0.354c-0.22 0.094-0.493 0.142-0.817 0.142-0.394 0-0.736-0.106-1.026-0.319-0.278-0.212-0.493-0.49-0.643-0.832-0.139-0.354-0.214-0.737-0.226-1.15v-0.142h5.771c0.127 0 0.232-0.041 0.313-0.124s0.121-0.183 0.121-0.301v-0.372c0-0.92-0.162-1.729-0.487-2.425-0.325-0.708-0.805-1.257-1.443-1.646-0.637-0.401-1.425-0.602-2.364-0.602-0.846 0-1.582 0.177-2.208 0.531-0.626 0.342-1.118 0.838-1.477 1.487-0.348 0.637-0.545 1.404-0.591 2.301-0.011 0.106-0.017 0.254-0.017 0.442 0 0.177 0.006 0.325 0.017 0.443 0.058 1.392 0.464 2.466 1.217 3.221zM107.33 15.989h-3.842v-0.053c0-0.46 0.070-0.861 0.209-1.204 0.151-0.354 0.371-0.625 0.661-0.814 0.29-0.201 0.637-0.301 1.043-0.301s0.753 0.1 1.043 0.301c0.29 0.189 0.51 0.46 0.661 0.814 0.151 0.342 0.226 0.743 0.226 1.204v0.053z"></path>
<path fill="#fff" style="fill: var(--color3, #fff)" d="M114.964 21.564c-0.695 0-1.293-0.083-1.791-0.248-0.487-0.165-0.887-0.372-1.199-0.619s-0.545-0.496-0.695-0.743-0.232-0.454-0.243-0.619c-0.012-0.13 0.023-0.23 0.104-0.301 0.093-0.083 0.191-0.124 0.295-0.124h1.373c0.047 0 0.087 0.006 0.122 0.018s0.081 0.047 0.139 0.106c0.15 0.13 0.307 0.265 0.469 0.407 0.173 0.142 0.376 0.265 0.608 0.372 0.232 0.094 0.521 0.142 0.869 0.142 0.452 0 0.829-0.088 1.13-0.265 0.313-0.189 0.469-0.454 0.469-0.796 0-0.248-0.070-0.448-0.209-0.602-0.127-0.153-0.371-0.289-0.73-0.407-0.359-0.13-0.869-0.265-1.53-0.407-0.649-0.153-1.188-0.348-1.617-0.584s-0.747-0.531-0.956-0.885c-0.209-0.354-0.313-0.767-0.313-1.239 0-0.46 0.133-0.897 0.399-1.31 0.279-0.425 0.684-0.773 1.217-1.044 0.545-0.271 1.217-0.407 2.016-0.407 0.626 0 1.171 0.083 1.634 0.248 0.464 0.153 0.846 0.348 1.147 0.584 0.313 0.236 0.551 0.478 0.713 0.726 0.163 0.236 0.249 0.442 0.261 0.619 0.011 0.13-0.023 0.236-0.105 0.319-0.081 0.071-0.174 0.106-0.278 0.106h-1.287c-0.058 0-0.11-0.012-0.156-0.035s-0.093-0.053-0.139-0.089c-0.127-0.118-0.267-0.242-0.417-0.372-0.151-0.142-0.336-0.26-0.556-0.354-0.209-0.094-0.487-0.142-0.835-0.142-0.44 0-0.776 0.1-1.008 0.301-0.232 0.189-0.348 0.431-0.348 0.726 0 0.201 0.053 0.378 0.157 0.531 0.116 0.142 0.342 0.277 0.678 0.407s0.846 0.265 1.53 0.407c0.776 0.142 1.391 0.354 1.843 0.637 0.463 0.271 0.788 0.59 0.973 0.956 0.197 0.354 0.295 0.749 0.295 1.186 0 0.531-0.157 1.009-0.469 1.434-0.301 0.425-0.753 0.761-1.356 1.009-0.591 0.236-1.327 0.354-2.207 0.354z"></path>
<path fill="#fff" style="fill: var(--color3, #fff)" d="M123.087 21.015c0.475 0.248 1.060 0.372 1.755 0.372h1.408c0.116 0 0.215-0.041 0.296-0.124s0.121-0.183 0.121-0.301v-1.097c0-0.118-0.041-0.218-0.121-0.301s-0.18-0.124-0.296-0.124h-1.199c-0.417 0-0.713-0.136-0.887-0.407-0.162-0.271-0.243-0.649-0.243-1.133v-3.841h2.173c0.116 0 0.214-0.041 0.295-0.124s0.122-0.189 0.122-0.319v-1.009c0-0.118-0.041-0.218-0.122-0.301s-0.179-0.124-0.295-0.124h-2.173v-2.938c0-0.118-0.040-0.218-0.121-0.301s-0.18-0.124-0.295-0.124h-1.409c-0.127 0-0.231 0.041-0.313 0.124-0.069 0.083-0.104 0.183-0.104 0.301v2.938h-1.373c-0.116 0-0.215 0.041-0.295 0.124s-0.122 0.183-0.122 0.301v1.009c0 0.13 0.041 0.236 0.122 0.319s0.179 0.124 0.295 0.124h1.373v4.018c0 0.732 0.116 1.345 0.347 1.841 0.232 0.484 0.585 0.85 1.061 1.097z"></path>
</symbol>
<symbol id="mail" viewBox="0 0 32 32">
<path fill="#67d9b7" style="fill: var(--color2, #67d9b7)" d="M25.333 5.333h-18.667c-1.061 0-2.078 0.421-2.828 1.172s-1.172 1.768-1.172 2.828v13.333c0 1.061 0.421 2.078 1.172 2.828s1.768 1.172 2.828 1.172h18.667c1.061 0 2.078-0.421 2.828-1.172s1.172-1.768 1.172-2.828v-13.333c0-1.061-0.421-2.078-1.172-2.828s-1.768-1.172-2.828-1.172zM24.787 8l-7.84 7.84c-0.124 0.125-0.271 0.224-0.434 0.292s-0.337 0.103-0.513 0.103-0.35-0.035-0.513-0.103c-0.162-0.068-0.31-0.167-0.434-0.292l-7.84-7.84h17.573zM26.667 22.667c0 0.354-0.141 0.693-0.391 0.943s-0.589 0.391-0.943 0.391h-18.667c-0.354 0-0.693-0.141-0.943-0.391s-0.391-0.589-0.391-0.943v-12.787l7.84 7.84c0.75 0.749 1.767 1.17 2.827 1.17s2.077-0.421 2.827-1.17l7.84-7.84v12.787z"></path>
</symbol>
<symbol id="map" viewBox="0 0 32 32">
<path fill="#67d9b7" style="fill: var(--color2, #67d9b7)" d="M27.28 12.84c-0.187-1.948-0.876-3.815-1.998-5.418s-2.641-2.888-4.408-3.73-3.721-1.212-5.674-1.074c-1.952 0.138-3.835 0.779-5.466 1.861-1.401 0.937-2.577 2.172-3.444 3.618s-1.403 3.065-1.569 4.742c-0.163 1.666 0.046 3.348 0.614 4.923s1.478 3.004 2.666 4.184l7.067 7.080c0.124 0.125 0.271 0.224 0.434 0.292s0.337 0.103 0.513 0.103c0.176 0 0.35-0.035 0.513-0.103s0.31-0.167 0.434-0.292l7.040-7.080c1.188-1.179 2.099-2.609 2.666-4.184s0.777-3.257 0.614-4.923zM22.133 20.067l-6.133 6.133-6.133-6.133c-0.904-0.904-1.596-1.997-2.027-3.2s-0.59-2.487-0.466-3.76c0.125-1.292 0.536-2.54 1.202-3.654s1.572-2.066 2.651-2.786c1.415-0.94 3.075-1.441 4.773-1.441s3.359 0.501 4.773 1.441c1.076 0.718 1.98 1.666 2.646 2.775s1.079 2.352 1.208 3.639c0.128 1.277-0.029 2.566-0.46 3.774s-1.126 2.306-2.033 3.213zM16 8c-1.187 0-2.347 0.352-3.333 1.011s-1.756 1.596-2.21 2.693-0.573 2.303-0.341 3.467c0.232 1.164 0.803 2.233 1.642 3.072s1.908 1.411 3.072 1.642c1.164 0.232 2.37 0.113 3.467-0.341s2.033-1.223 2.693-2.21 1.011-2.147 1.011-3.333c-0.004-1.59-0.637-3.114-1.761-4.239s-2.649-1.758-4.239-1.761zM16 17.334c-0.659 0-1.304-0.195-1.852-0.562s-0.975-0.887-1.228-1.496-0.318-1.279-0.19-1.926c0.129-0.647 0.446-1.241 0.912-1.707s1.060-0.784 1.707-0.912c0.647-0.129 1.317-0.063 1.926 0.19s1.13 0.68 1.496 1.228c0.366 0.548 0.562 1.193 0.562 1.852 0 0.884-0.351 1.732-0.976 2.357s-1.473 0.976-2.357 0.976z"></path>
</symbol>
<symbol id="padlock" viewBox="0 0 32 32">
<path fill="none" stroke="#fff" style="stroke: var(--color3, #fff)" stroke-linejoin="miter" stroke-linecap="butt" stroke-miterlimit="4" stroke-width="1.3333" d="M-20.667-14.667c0-3.314 2.686-6 6-6h426.667c3.313 0 6 2.686 6 6v61.333c0 3.314-2.687 6-6 6h-426.667c-3.314 0-6-2.686-6-6v-61.333z"></path>
<path fill="#67d9b7" style="fill: var(--color2, #67d9b7)" d="M16 17.333c-0.406-0.005-0.804 0.115-1.139 0.343s-0.594 0.554-0.739 0.933-0.171 0.794-0.073 1.188c0.097 0.394 0.313 0.749 0.619 1.017v1.853c0 0.354 0.141 0.693 0.391 0.943s0.589 0.391 0.943 0.391c0.354 0 0.693-0.141 0.943-0.391s0.391-0.589 0.391-0.943v-1.853c0.305-0.268 0.521-0.623 0.619-1.017s0.072-0.809-0.073-1.188-0.403-0.705-0.739-0.933c-0.336-0.228-0.733-0.348-1.139-0.343zM22.667 12v-2.667c0-1.768-0.702-3.464-1.953-4.714s-2.946-1.953-4.714-1.953-3.464 0.702-4.714 1.953c-1.25 1.25-1.953 2.946-1.953 4.714v2.667c-1.061 0-2.078 0.421-2.828 1.172s-1.172 1.768-1.172 2.828v9.333c0 1.061 0.421 2.078 1.172 2.828s1.768 1.172 2.828 1.172h13.333c1.061 0 2.078-0.421 2.828-1.172s1.172-1.768 1.172-2.828v-9.333c0-1.061-0.421-2.078-1.172-2.828s-1.768-1.172-2.828-1.172zM12 9.333c0-1.061 0.421-2.078 1.172-2.828s1.768-1.172 2.828-1.172c1.061 0 2.078 0.421 2.828 1.172s1.172 1.768 1.172 2.828v2.667h-8v-2.667zM24 25.333c0 0.354-0.141 0.693-0.391 0.943s-0.589 0.391-0.943 0.391h-13.333c-0.354 0-0.693-0.141-0.943-0.391s-0.391-0.589-0.391-0.943v-9.333c0-0.354 0.14-0.693 0.391-0.943s0.589-0.391 0.943-0.391h13.333c0.354 0 0.693 0.141 0.943 0.391s0.391 0.589 0.391 0.943v9.333z"></path>
</symbol>
<symbol id="padlocks" viewBox="0 0 32 32">
<path fill="none" stroke="#fff" style="stroke: var(--color3, #fff)" stroke-linejoin="miter" stroke-linecap="butt" stroke-miterlimit="4" stroke-width="1.3333" d="M-20.667-14.667c0-3.314 2.686-6 6-6h426.667c3.313 0 6 2.686 6 6v61.333c0 3.314-2.687 6-6 6h-426.667c-3.314 0-6-2.686-6-6v-61.333z"></path>
<path fill="#67d9b7" style="fill: var(--color2, #67d9b7)" d="M13.333 18.667c-0.406-0.005-0.804 0.115-1.139 0.343s-0.594 0.554-0.739 0.933c-0.145 0.379-0.171 0.794-0.073 1.188s0.313 0.749 0.618 1.017v1.853c0 0.354 0.14 0.693 0.391 0.943s0.589 0.391 0.943 0.391c0.354 0 0.693-0.141 0.943-0.391s0.391-0.589 0.391-0.943v-1.853c0.305-0.268 0.521-0.623 0.619-1.017s0.072-0.809-0.073-1.188-0.403-0.705-0.739-0.933c-0.336-0.228-0.733-0.348-1.139-0.343zM20 13.333v-2.667c0-1.768-0.702-3.464-1.953-4.714s-2.946-1.953-4.714-1.953-3.464 0.702-4.714 1.953c-1.25 1.25-1.953 2.946-1.953 4.714v2.667c-1.061 0-2.078 0.421-2.828 1.172s-1.172 1.768-1.172 2.828v9.333c0 1.061 0.421 2.078 1.172 2.828s1.768 1.172 2.828 1.172h13.333c1.061 0 2.078-0.421 2.828-1.172s1.172-1.768 1.172-2.828v-9.333c0-1.061-0.421-2.078-1.172-2.828s-1.768-1.172-2.828-1.172zM9.333 10.667c0-1.061 0.421-2.078 1.172-2.828s1.768-1.172 2.828-1.172c1.061 0 2.078 0.421 2.828 1.172s1.172 1.768 1.172 2.828v2.667h-8v-2.667zM21.333 26.667c0 0.354-0.141 0.693-0.391 0.943s-0.589 0.391-0.943 0.391h-13.333c-0.354 0-0.693-0.141-0.943-0.391s-0.391-0.589-0.391-0.943v-9.333c0-0.354 0.14-0.693 0.391-0.943s0.589-0.391 0.943-0.391h13.333c0.354 0 0.693 0.141 0.943 0.391s0.391 0.589 0.391 0.943v9.333z"></path>
<path fill="#67d9b7" style="fill: var(--color2, #67d9b7)" d="M23.771 28h1.562c1.061 0 2.078-0.421 2.828-1.172s1.172-1.768 1.172-2.828v-9.333c0-1.061-0.421-2.078-1.172-2.828s-1.767-1.172-2.828-1.172v-2.667c0-1.768-0.702-3.464-1.953-4.714s-2.946-1.953-4.714-1.953-3.464 0.702-4.714 1.953c-0.224 0.224-0.431 0.463-0.619 0.714 1.064 0 2.101 0.254 3.031 0.729 0.669-0.471 1.473-0.729 2.302-0.729 1.061 0 2.078 0.421 2.828 1.172s1.172 1.768 1.172 2.828v2.667h-2.667v2.667h5.333c0.354 0 0.693 0.141 0.943 0.391s0.391 0.589 0.391 0.943v9.333c0 0.354-0.14 0.693-0.391 0.943s-0.589 0.391-0.943 0.391h-1.333v1.333c0 0.459-0.079 0.909-0.229 1.333z"></path>
</symbol>
<symbol id="phone" viewBox="0 0 32 32">
<path fill="#67d9b7" style="fill: var(--color2, #67d9b7)" d="M25.92 17.333c-0.293 0-0.6-0.093-0.893-0.16-0.594-0.131-1.178-0.305-1.747-0.52-0.619-0.225-1.299-0.213-1.909 0.033s-1.108 0.709-1.398 1.301l-0.293 0.6c-1.299-0.722-2.492-1.62-3.547-2.667-1.047-1.055-1.944-2.248-2.667-3.547l0.56-0.373c0.591-0.289 1.054-0.787 1.301-1.398s0.258-1.29 0.033-1.909c-0.212-0.57-0.385-1.154-0.52-1.747-0.067-0.293-0.12-0.6-0.16-0.907-0.162-0.939-0.654-1.79-1.387-2.398s-1.66-0.935-2.613-0.922h-4c-0.575-0.005-1.144 0.113-1.668 0.347s-0.993 0.579-1.372 1.010c-0.38 0.431-0.662 0.94-0.827 1.49s-0.211 1.13-0.132 1.699c0.71 5.586 3.261 10.776 7.25 14.75s9.188 6.507 14.776 7.197h0.507c0.983 0.001 1.933-0.359 2.667-1.013 0.422-0.377 0.759-0.84 0.989-1.357s0.347-1.077 0.345-1.643v-4c-0.016-0.926-0.354-1.818-0.954-2.523s-1.427-1.18-2.339-1.343zM26.587 25.333c-0 0.189-0.041 0.376-0.119 0.549s-0.192 0.326-0.334 0.451c-0.149 0.129-0.323 0.225-0.511 0.282s-0.386 0.075-0.582 0.051c-4.993-0.64-9.632-2.925-13.183-6.493s-5.814-8.217-6.43-13.214c-0.021-0.195-0.003-0.393 0.055-0.581s0.152-0.362 0.279-0.513c0.125-0.142 0.279-0.256 0.451-0.334s0.36-0.119 0.549-0.119h4c0.31-0.007 0.613 0.095 0.856 0.287s0.412 0.463 0.477 0.767c0.053 0.364 0.12 0.724 0.2 1.080 0.154 0.703 0.359 1.394 0.613 2.067l-1.867 0.867c-0.16 0.073-0.303 0.177-0.422 0.306s-0.212 0.28-0.273 0.445c-0.061 0.165-0.088 0.34-0.081 0.515s0.049 0.348 0.123 0.507c1.919 4.11 5.223 7.414 9.333 9.333 0.325 0.133 0.689 0.133 1.013 0 0.166-0.059 0.319-0.151 0.45-0.27s0.236-0.263 0.31-0.423l0.827-1.867c0.689 0.247 1.393 0.451 2.107 0.613 0.356 0.080 0.716 0.147 1.080 0.2 0.303 0.065 0.574 0.234 0.767 0.477s0.294 0.546 0.287 0.856l0.027 4.16z"></path>
</symbol>
<symbol id="tr1" viewBox="0 0 16 32">
<path fill="#6ceec7" style="fill: var(--color1, #6ceec7)" opacity="0.6" d="M2.855 0.971l-7.852 7.806c-1.298 1.29-1.298 3.383 0 4.673l7.852 7.806c1.298 1.291 3.403 1.291 4.701 0l7.852-7.806c1.298-1.29 1.298-3.383 0-4.673l-7.852-7.806c-1.298-1.29-3.403-1.29-4.701 0z"></path>
<path fill="#6ceec7" style="fill: var(--color1, #6ceec7)" opacity="0.7200000000000001" d="M0.922 24.806c-0.193 0-0.384-0.038-0.562-0.111s-0.34-0.182-0.476-0.318l-2.946-2.956c-0.138-0.134-0.247-0.295-0.322-0.472s-0.112-0.368-0.11-0.56c0.003-0.383 0.158-0.749 0.432-1.019l2.973-2.956c0.28-0.266 0.652-0.414 1.038-0.414s0.759 0.148 1.038 0.414l2.946 2.956c0.137 0.135 0.246 0.296 0.32 0.473s0.112 0.367 0.112 0.559c0 0.192-0.038 0.382-0.112 0.559s-0.183 0.338-0.32 0.473l-2.973 2.956c-0.277 0.27-0.651 0.419-1.038 0.416zM0.922 16.387c-0.138-0.001-0.275 0.025-0.403 0.078s-0.243 0.131-0.339 0.23l-2.98 2.956c-0.194 0.197-0.303 0.462-0.303 0.737s0.109 0.541 0.303 0.737l2.98 2.936c0.2 0.19 0.465 0.296 0.742 0.296s0.542-0.106 0.742-0.296l2.973-2.956c0.098-0.097 0.176-0.211 0.229-0.338s0.080-0.262 0.080-0.399c0-0.137-0.027-0.273-0.080-0.399s-0.131-0.241-0.229-0.338l-2.98-2.943c-0.096-0.096-0.211-0.172-0.337-0.224s-0.261-0.078-0.398-0.078z"></path>
</symbol>
<symbol id="tr2" viewBox="0 0 29 32">
<path fill="#6ceec7" style="fill: var(--color1, #6ceec7)" d="M26.848 3.233l-5.238 5.277c-0.865 0.871-0.865 2.284 0 3.155l5.238 5.277c0.865 0.871 2.267 0.871 3.132 0l5.238-5.277c0.865-0.871 0.865-2.284 0-3.155l-5.238-5.277c-0.865-0.871-2.267-0.871-3.132 0z"></path>
<path fill="#6ceec7" style="fill: var(--color1, #6ceec7)" opacity="0.4" d="M12.54 1.396l-11.154 11.238c-1.845 1.859-1.845 4.873 0 6.733l11.154 11.238c1.845 1.859 4.837 1.859 6.683 0l11.154-11.238c1.845-1.859 1.845-4.873 0-6.733l-11.154-11.238c-1.845-1.859-4.837-1.859-6.683 0z"></path>
</symbol>
<symbol id="tr3" viewBox="0 0 28 32">
<path fill="#6ceec7" style="fill: var(--color1, #6ceec7)" opacity="0.6" d="M15.192 1.673l-13.515 13.515c-2.235 2.235-2.235 5.858 0 8.092l13.515 13.515c2.235 2.235 5.858 2.235 8.092 0l13.515-13.515c2.235-2.235 2.235-5.858 0-8.092l-13.515-13.515c-2.235-2.235-5.858-2.235-8.092 0z"></path>
<path fill="#6ceec7" style="fill: var(--color1, #6ceec7)" opacity="0.6400000000000001" d="M8.246 35.974c-0.24 0.001-0.479-0.045-0.701-0.137s-0.424-0.227-0.593-0.397l-3.941-3.941c-0.17-0.17-0.305-0.372-0.397-0.594s-0.139-0.46-0.139-0.701c0-0.24 0.047-0.478 0.139-0.7s0.227-0.424 0.397-0.594l3.941-3.941c0.17-0.17 0.372-0.305 0.594-0.397s0.46-0.139 0.7-0.139 0.478 0.047 0.7 0.139c0.222 0.092 0.424 0.227 0.594 0.397l3.941 3.941c0.17 0.17 0.305 0.372 0.397 0.594s0.139 0.46 0.139 0.7-0.047 0.478-0.139 0.701c-0.092 0.222-0.227 0.424-0.397 0.594l-3.941 3.941c-0.169 0.17-0.371 0.306-0.593 0.397s-0.46 0.138-0.701 0.137zM8.246 24.744c-0.198-0.001-0.395 0.037-0.579 0.112s-0.35 0.186-0.491 0.327l-3.941 3.941c-0.283 0.284-0.443 0.668-0.443 1.070s0.159 0.786 0.443 1.070l3.941 3.941c0.284 0.283 0.668 0.443 1.070 0.443s0.786-0.159 1.070-0.443l3.941-3.941c0.283-0.284 0.443-0.668 0.443-1.070s-0.159-0.786-0.443-1.070l-3.941-3.941c-0.141-0.138-0.308-0.247-0.492-0.321s-0.38-0.11-0.578-0.107v-0.011z"></path>
</symbol>
<symbol id="user" viewBox="0 0 32 32">
<path fill="#67d9b7" style="fill: var(--color2, #67d9b7)" d="M20.947 16.946c1.307-1.028 2.261-2.439 2.73-4.035s0.428-3.298-0.117-4.87-1.565-2.935-2.92-3.899c-1.355-0.965-2.977-1.483-4.64-1.483s-3.285 0.518-4.64 1.483-2.375 2.328-2.92 3.899c-0.544 1.572-0.585 3.274-0.117 4.87s1.422 3.006 2.73 4.035c-2.24 0.897-4.194 2.386-5.655 4.307s-2.372 4.202-2.639 6.6c-0.019 0.175-0.004 0.352 0.045 0.521s0.131 0.327 0.241 0.464c0.223 0.277 0.546 0.455 0.9 0.494s0.708-0.064 0.986-0.287 0.455-0.546 0.494-0.9c0.293-2.606 1.536-5.014 3.491-6.762s4.486-2.714 7.109-2.714c2.623 0 5.154 0.966 7.109 2.714s3.198 4.155 3.491 6.762c0.036 0.328 0.193 0.63 0.439 0.849s0.565 0.339 0.895 0.337h0.147c0.349-0.040 0.669-0.217 0.889-0.492s0.322-0.625 0.285-0.975c-0.267-2.405-1.184-4.692-2.652-6.616s-3.432-3.412-5.681-4.304zM16 15.999c-1.055 0-2.086-0.313-2.963-0.899s-1.561-1.419-1.964-2.393c-0.404-0.975-0.509-2.047-0.303-3.081s0.714-1.985 1.46-2.731c0.746-0.746 1.696-1.254 2.731-1.46s2.107-0.1 3.081 0.303 1.807 1.087 2.394 1.964c0.586 0.877 0.899 1.908 0.899 2.963 0 1.414-0.562 2.771-1.562 3.771s-2.357 1.562-3.771 1.562z"></path>
</symbol>
<symbol id="users" viewBox="0 0 32 32">
<path fill="#67d9b7" style="fill: var(--color2, #67d9b7)" d="M16.4 16.293c0.711-0.616 1.282-1.377 1.673-2.233s0.593-1.786 0.593-2.727c0-1.768-0.702-3.464-1.953-4.714s-2.946-1.953-4.714-1.953-3.464 0.702-4.714 1.953c-1.25 1.25-1.953 2.946-1.953 4.714 0 0.941 0.202 1.871 0.593 2.727s0.962 1.617 1.673 2.233c-1.866 0.845-3.45 2.21-4.561 3.931s-1.703 3.726-1.705 5.775c0 0.354 0.14 0.693 0.391 0.943s0.589 0.391 0.943 0.391c0.354 0 0.693-0.141 0.943-0.391s0.391-0.589 0.391-0.943c0-2.122 0.843-4.157 2.343-5.657s3.535-2.343 5.657-2.343 4.157 0.843 5.657 2.343c1.5 1.5 2.343 3.535 2.343 5.657 0 0.354 0.141 0.693 0.391 0.943s0.589 0.391 0.943 0.391c0.354 0 0.693-0.141 0.943-0.391s0.391-0.589 0.391-0.943c-0.002-2.049-0.594-4.054-1.705-5.775s-2.695-3.086-4.561-3.931zM12 15.333c-0.791 0-1.564-0.235-2.222-0.674s-1.171-1.064-1.473-1.795c-0.303-0.731-0.382-1.535-0.228-2.311s0.535-1.489 1.095-2.048c0.559-0.559 1.272-0.94 2.048-1.095s1.58-0.075 2.311 0.228c0.731 0.303 1.356 0.815 1.795 1.473s0.674 1.431 0.674 2.222c0 1.061-0.421 2.078-1.172 2.828s-1.768 1.172-2.828 1.172zM24.987 15.76c0.853-0.961 1.411-2.148 1.605-3.418s0.017-2.57-0.509-3.742c-0.527-1.172-1.381-2.167-2.46-2.865s-2.337-1.069-3.622-1.069c-0.354 0-0.693 0.14-0.943 0.391s-0.391 0.589-0.391 0.943c0 0.354 0.141 0.693 0.391 0.943s0.589 0.391 0.943 0.391c1.061 0 2.078 0.421 2.828 1.172s1.172 1.768 1.172 2.828c-0.002 0.7-0.188 1.388-0.539 1.994s-0.855 1.109-1.461 1.459c-0.198 0.114-0.363 0.277-0.479 0.473s-0.181 0.419-0.187 0.647c-0.006 0.226 0.047 0.45 0.152 0.651s0.259 0.371 0.448 0.496l0.52 0.347 0.173 0.093c1.607 0.762 2.963 1.968 3.908 3.475s1.439 3.253 1.425 5.032c0 0.354 0.141 0.693 0.391 0.943s0.589 0.391 0.943 0.391c0.354 0 0.693-0.141 0.943-0.391s0.391-0.589 0.391-0.943c0.011-2.046-0.502-4.061-1.489-5.853s-2.416-3.302-4.151-4.387z"></path>
</symbol>
<symbol id="void-box" viewBox="0 0 13 32">
<path fill="none" stroke="#67d9b7" style="stroke: var(--color2, #67d9b7)" stroke-linejoin="miter" stroke-linecap="butt" stroke-miterlimit="4" stroke-width="0.6667" d="M2 0.333h9.333c0.92 0 1.667 0.746 1.667 1.667v9.333c0 0.92-0.746 1.667-1.667 1.667h-9.333c-0.92 0-1.667-0.746-1.667-1.667v-9.333c0-0.92 0.746-1.667 1.667-1.667z"></path>
</symbol>
</defs>
</svg>
